G04 EAGLE Gerber RS-274X export*
G75*
%MOMM*%
%FSLAX34Y34*%
%LPD*%
%INTop Copper*%
%IPPOS*%
%AMOC8*
5,1,8,0,0,1.08239X$1,22.5*%
G01*
%ADD10P,1.429621X8X112.500000*%
%ADD11P,1.429621X8X202.500000*%
%ADD12R,2.286000X2.286000*%
%ADD13C,1.524000*%
%ADD14P,6.511658X8X292.500000*%
%ADD15C,4.318000*%
%ADD16C,1.676400*%
%ADD17C,3.302000*%
%ADD18P,1.429621X8X292.500000*%
%ADD19P,1.649562X8X112.500000*%
%ADD20P,1.649562X8X292.500000*%
%ADD21C,0.762000*%
%ADD22C,2.032000*%
%ADD23C,0.254000*%
%ADD24C,2.794000*%
%ADD25C,1.270000*%


D10*
X598900Y387300D03*
X598900Y412700D03*
X160000Y207300D03*
X160000Y232700D03*
X160000Y427300D03*
X160000Y452700D03*
D11*
X631600Y490000D03*
X606200Y490000D03*
D12*
X750100Y600000D03*
X597700Y600000D03*
X687300Y40000D03*
X687300Y192400D03*
D10*
X657150Y387300D03*
X657150Y412700D03*
D13*
X241300Y350520D02*
X241300Y335280D01*
X266700Y335280D02*
X266700Y350520D01*
X292100Y350520D02*
X292100Y335280D01*
X317500Y335280D02*
X317500Y350520D01*
X241300Y487680D02*
X241300Y502920D01*
X266700Y502920D02*
X266700Y487680D01*
X292100Y487680D02*
X292100Y502920D01*
X317500Y502920D02*
X317500Y487680D01*
X495300Y261620D02*
X495300Y246380D01*
X469900Y246380D02*
X469900Y261620D01*
X444500Y261620D02*
X444500Y246380D01*
X419100Y246380D02*
X419100Y261620D01*
X495300Y576580D02*
X495300Y591820D01*
X469900Y591820D02*
X469900Y576580D01*
X444500Y576580D02*
X444500Y591820D01*
X419100Y591820D02*
X419100Y576580D01*
D14*
X786800Y231400D03*
X786800Y161400D03*
D15*
X508900Y147000D03*
X508900Y87000D03*
X555900Y117000D03*
X378900Y147000D03*
X378900Y87000D03*
X425900Y117000D03*
X248900Y147000D03*
X248900Y87000D03*
X295900Y117000D03*
X691900Y480000D03*
X751900Y480000D03*
X721900Y527000D03*
D16*
X247500Y540188D03*
X272500Y540188D03*
X272500Y560000D03*
X247500Y560000D03*
D17*
X199802Y587178D03*
X320198Y587178D03*
D16*
X87500Y540188D03*
X112500Y540188D03*
X112500Y560000D03*
X87500Y560000D03*
D17*
X39802Y587178D03*
X160198Y587178D03*
D18*
X598900Y42700D03*
X598900Y17300D03*
D19*
X92700Y299200D03*
X67300Y299200D03*
X92700Y324600D03*
X67300Y324600D03*
X92700Y350000D03*
X67300Y350000D03*
X92700Y375400D03*
X67300Y375400D03*
X92700Y400800D03*
X67300Y400800D03*
X92000Y82900D03*
X66600Y82900D03*
X92000Y108300D03*
X66600Y108300D03*
X92000Y133700D03*
X66600Y133700D03*
X92000Y159100D03*
X66600Y159100D03*
X92000Y184500D03*
X66600Y184500D03*
D18*
X749850Y411000D03*
X749850Y385600D03*
D19*
X793200Y291800D03*
X793200Y418800D03*
X160000Y276500D03*
X160000Y403500D03*
X160000Y56500D03*
X160000Y183500D03*
X598900Y236500D03*
X598900Y363500D03*
D20*
X598900Y203500D03*
X598900Y76500D03*
D19*
X657150Y236500D03*
X657150Y363500D03*
D21*
X118181Y573716D02*
X106819Y573716D01*
X93103Y560000D02*
X87500Y560000D01*
X131897Y560000D02*
X226500Y560000D01*
X230000Y560000D02*
X247500Y560000D01*
X106819Y573716D02*
X93103Y560000D01*
X118181Y573716D02*
X131897Y560000D01*
X266700Y495300D02*
X266700Y412750D01*
X266700Y342900D01*
X119200Y452700D02*
X67300Y400800D01*
X119200Y452700D02*
X160000Y452700D01*
X160000Y232700D02*
X94800Y232700D01*
X67300Y260200D02*
X67300Y299200D01*
X67300Y260200D02*
X94800Y232700D01*
X160000Y452700D02*
X226750Y452700D01*
X266700Y412750D01*
X160000Y232700D02*
X196850Y195850D01*
X196850Y127000D01*
X236850Y87000D01*
X248900Y87000D01*
X67300Y299200D02*
X67300Y324600D01*
X67300Y350000D01*
X67300Y400800D01*
X67300Y375400D01*
X66600Y108300D02*
X66600Y82900D01*
X66600Y133700D02*
X66600Y184500D01*
X66600Y133700D02*
X66600Y108300D01*
D22*
X721900Y510000D02*
X721900Y527000D01*
X721900Y510000D02*
X751900Y480000D01*
X684600Y412700D01*
D23*
X722750Y412700D02*
X749850Y385600D01*
D21*
X66600Y184500D02*
X66600Y159100D01*
D22*
X598900Y412700D02*
X598900Y482700D01*
X606200Y490000D01*
X598900Y412700D02*
X657150Y412700D01*
X684600Y412700D01*
D23*
X657150Y412700D02*
X722750Y412700D01*
D21*
X66600Y204500D02*
X66600Y184500D01*
X66600Y204500D02*
X94800Y232700D01*
X67300Y400800D02*
X226500Y560000D01*
X230000Y560000D01*
D23*
X657150Y282850D02*
X657150Y236500D01*
X560000Y380000D02*
X560000Y560000D01*
X597700Y597700D01*
X597700Y600000D01*
X560000Y380000D02*
X657150Y282850D01*
D24*
X628650Y98650D02*
X687300Y40000D01*
X628650Y98650D02*
X628650Y209550D01*
X628650Y273050D01*
X596900Y304800D01*
X457200Y304800D01*
D23*
X598900Y236500D02*
X625850Y209550D01*
D25*
X628650Y209550D01*
D24*
X419100Y254000D02*
X419100Y266700D01*
X457200Y304800D01*
D22*
X444500Y254000D02*
X419100Y254000D01*
M02*
