G04 EAGLE Gerber RS-274X export*
G75*
%MOMM*%
%FSLAX34Y34*%
%LPD*%
%IN*%
%IPPOS*%
%AMOC8*
5,1,8,0,0,1.08239X$1,22.5*%
G01*
%ADD10C,0.254000*%


D10*
X10000Y0D02*
X840000Y0D01*
X840000Y655000D01*
X10000Y655000D01*
X10000Y0D01*
X825000Y39299D02*
X824921Y37898D01*
X824764Y36504D01*
X824529Y35121D01*
X824217Y33753D01*
X823829Y32405D01*
X823365Y31081D01*
X822829Y29785D01*
X822220Y28521D01*
X821541Y27293D01*
X820795Y26105D01*
X819983Y24961D01*
X819108Y23864D01*
X818174Y22818D01*
X817182Y21826D01*
X816136Y20892D01*
X815039Y20017D01*
X813895Y19205D01*
X812707Y18459D01*
X811479Y17780D01*
X810215Y17171D01*
X808919Y16635D01*
X807595Y16171D01*
X806247Y15783D01*
X804879Y15471D01*
X803496Y15236D01*
X802102Y15079D01*
X800701Y15000D01*
X799299Y15000D01*
X797898Y15079D01*
X796504Y15236D01*
X795121Y15471D01*
X793753Y15783D01*
X792405Y16171D01*
X791081Y16635D01*
X789785Y17171D01*
X788521Y17780D01*
X787293Y18459D01*
X786105Y19205D01*
X784961Y20017D01*
X783864Y20892D01*
X782818Y21826D01*
X781826Y22818D01*
X780892Y23864D01*
X780017Y24961D01*
X779205Y26105D01*
X778459Y27293D01*
X777780Y28521D01*
X777171Y29785D01*
X776635Y31081D01*
X776171Y32405D01*
X775783Y33753D01*
X775471Y35121D01*
X775236Y36504D01*
X775079Y37898D01*
X775000Y39299D01*
X775000Y40701D01*
X775079Y42102D01*
X775236Y43496D01*
X775471Y44879D01*
X775783Y46247D01*
X776171Y47595D01*
X776635Y48919D01*
X777171Y50215D01*
X777780Y51479D01*
X778459Y52707D01*
X779205Y53895D01*
X780017Y55039D01*
X780892Y56136D01*
X781826Y57182D01*
X782818Y58174D01*
X783864Y59108D01*
X784961Y59983D01*
X786105Y60795D01*
X787293Y61541D01*
X788521Y62220D01*
X789785Y62829D01*
X791081Y63365D01*
X792405Y63829D01*
X793753Y64217D01*
X795121Y64529D01*
X796504Y64764D01*
X797898Y64921D01*
X799299Y65000D01*
X800701Y65000D01*
X802102Y64921D01*
X803496Y64764D01*
X804879Y64529D01*
X806247Y64217D01*
X807595Y63829D01*
X808919Y63365D01*
X810215Y62829D01*
X811479Y62220D01*
X812707Y61541D01*
X813895Y60795D01*
X815039Y59983D01*
X816136Y59108D01*
X817182Y58174D01*
X818174Y57182D01*
X819108Y56136D01*
X819983Y55039D01*
X820795Y53895D01*
X821541Y52707D01*
X822220Y51479D01*
X822829Y50215D01*
X823365Y48919D01*
X823829Y47595D01*
X824217Y46247D01*
X824529Y44879D01*
X824764Y43496D01*
X824921Y42102D01*
X825000Y40701D01*
X825000Y39299D01*
X825000Y579299D02*
X824921Y577898D01*
X824764Y576504D01*
X824529Y575121D01*
X824217Y573753D01*
X823829Y572405D01*
X823365Y571081D01*
X822829Y569785D01*
X822220Y568521D01*
X821541Y567293D01*
X820795Y566105D01*
X819983Y564961D01*
X819108Y563864D01*
X818174Y562818D01*
X817182Y561826D01*
X816136Y560892D01*
X815039Y560017D01*
X813895Y559205D01*
X812707Y558459D01*
X811479Y557780D01*
X810215Y557171D01*
X808919Y556635D01*
X807595Y556171D01*
X806247Y555783D01*
X804879Y555471D01*
X803496Y555236D01*
X802102Y555079D01*
X800701Y555000D01*
X799299Y555000D01*
X797898Y555079D01*
X796504Y555236D01*
X795121Y555471D01*
X793753Y555783D01*
X792405Y556171D01*
X791081Y556635D01*
X789785Y557171D01*
X788521Y557780D01*
X787293Y558459D01*
X786105Y559205D01*
X784961Y560017D01*
X783864Y560892D01*
X782818Y561826D01*
X781826Y562818D01*
X780892Y563864D01*
X780017Y564961D01*
X779205Y566105D01*
X778459Y567293D01*
X777780Y568521D01*
X777171Y569785D01*
X776635Y571081D01*
X776171Y572405D01*
X775783Y573753D01*
X775471Y575121D01*
X775236Y576504D01*
X775079Y577898D01*
X775000Y579299D01*
X775000Y580701D01*
X775079Y582102D01*
X775236Y583496D01*
X775471Y584879D01*
X775783Y586247D01*
X776171Y587595D01*
X776635Y588919D01*
X777171Y590215D01*
X777780Y591479D01*
X778459Y592707D01*
X779205Y593895D01*
X780017Y595039D01*
X780892Y596136D01*
X781826Y597182D01*
X782818Y598174D01*
X783864Y599108D01*
X784961Y599983D01*
X786105Y600795D01*
X787293Y601541D01*
X788521Y602220D01*
X789785Y602829D01*
X791081Y603365D01*
X792405Y603829D01*
X793753Y604217D01*
X795121Y604529D01*
X796504Y604764D01*
X797898Y604921D01*
X799299Y605000D01*
X800701Y605000D01*
X802102Y604921D01*
X803496Y604764D01*
X804879Y604529D01*
X806247Y604217D01*
X807595Y603829D01*
X808919Y603365D01*
X810215Y602829D01*
X811479Y602220D01*
X812707Y601541D01*
X813895Y600795D01*
X815039Y599983D01*
X816136Y599108D01*
X817182Y598174D01*
X818174Y597182D01*
X819108Y596136D01*
X819983Y595039D01*
X820795Y593895D01*
X821541Y592707D01*
X822220Y591479D01*
X822829Y590215D01*
X823365Y588919D01*
X823829Y587595D01*
X824217Y586247D01*
X824529Y584879D01*
X824764Y583496D01*
X824921Y582102D01*
X825000Y580701D01*
X825000Y579299D01*
X75000Y489299D02*
X74921Y487898D01*
X74764Y486504D01*
X74529Y485121D01*
X74217Y483753D01*
X73829Y482405D01*
X73365Y481081D01*
X72829Y479785D01*
X72220Y478521D01*
X71541Y477293D01*
X70795Y476105D01*
X69983Y474961D01*
X69108Y473864D01*
X68174Y472818D01*
X67182Y471826D01*
X66136Y470892D01*
X65039Y470017D01*
X63895Y469205D01*
X62707Y468459D01*
X61479Y467780D01*
X60215Y467171D01*
X58919Y466635D01*
X57595Y466171D01*
X56247Y465783D01*
X54879Y465471D01*
X53496Y465236D01*
X52102Y465079D01*
X50701Y465000D01*
X49299Y465000D01*
X47898Y465079D01*
X46504Y465236D01*
X45121Y465471D01*
X43753Y465783D01*
X42405Y466171D01*
X41081Y466635D01*
X39785Y467171D01*
X38521Y467780D01*
X37293Y468459D01*
X36105Y469205D01*
X34961Y470017D01*
X33864Y470892D01*
X32818Y471826D01*
X31826Y472818D01*
X30892Y473864D01*
X30017Y474961D01*
X29205Y476105D01*
X28459Y477293D01*
X27780Y478521D01*
X27171Y479785D01*
X26635Y481081D01*
X26171Y482405D01*
X25783Y483753D01*
X25471Y485121D01*
X25236Y486504D01*
X25079Y487898D01*
X25000Y489299D01*
X25000Y490701D01*
X25079Y492102D01*
X25236Y493496D01*
X25471Y494879D01*
X25783Y496247D01*
X26171Y497595D01*
X26635Y498919D01*
X27171Y500215D01*
X27780Y501479D01*
X28459Y502707D01*
X29205Y503895D01*
X30017Y505039D01*
X30892Y506136D01*
X31826Y507182D01*
X32818Y508174D01*
X33864Y509108D01*
X34961Y509983D01*
X36105Y510795D01*
X37293Y511541D01*
X38521Y512220D01*
X39785Y512829D01*
X41081Y513365D01*
X42405Y513829D01*
X43753Y514217D01*
X45121Y514529D01*
X46504Y514764D01*
X47898Y514921D01*
X49299Y515000D01*
X50701Y515000D01*
X52102Y514921D01*
X53496Y514764D01*
X54879Y514529D01*
X56247Y514217D01*
X57595Y513829D01*
X58919Y513365D01*
X60215Y512829D01*
X61479Y512220D01*
X62707Y511541D01*
X63895Y510795D01*
X65039Y509983D01*
X66136Y509108D01*
X67182Y508174D01*
X68174Y507182D01*
X69108Y506136D01*
X69983Y505039D01*
X70795Y503895D01*
X71541Y502707D01*
X72220Y501479D01*
X72829Y500215D01*
X73365Y498919D01*
X73829Y497595D01*
X74217Y496247D01*
X74529Y494879D01*
X74764Y493496D01*
X74921Y492102D01*
X75000Y490701D01*
X75000Y489299D01*
X75000Y39299D02*
X74921Y37898D01*
X74764Y36504D01*
X74529Y35121D01*
X74217Y33753D01*
X73829Y32405D01*
X73365Y31081D01*
X72829Y29785D01*
X72220Y28521D01*
X71541Y27293D01*
X70795Y26105D01*
X69983Y24961D01*
X69108Y23864D01*
X68174Y22818D01*
X67182Y21826D01*
X66136Y20892D01*
X65039Y20017D01*
X63895Y19205D01*
X62707Y18459D01*
X61479Y17780D01*
X60215Y17171D01*
X58919Y16635D01*
X57595Y16171D01*
X56247Y15783D01*
X54879Y15471D01*
X53496Y15236D01*
X52102Y15079D01*
X50701Y15000D01*
X49299Y15000D01*
X47898Y15079D01*
X46504Y15236D01*
X45121Y15471D01*
X43753Y15783D01*
X42405Y16171D01*
X41081Y16635D01*
X39785Y17171D01*
X38521Y17780D01*
X37293Y18459D01*
X36105Y19205D01*
X34961Y20017D01*
X33864Y20892D01*
X32818Y21826D01*
X31826Y22818D01*
X30892Y23864D01*
X30017Y24961D01*
X29205Y26105D01*
X28459Y27293D01*
X27780Y28521D01*
X27171Y29785D01*
X26635Y31081D01*
X26171Y32405D01*
X25783Y33753D01*
X25471Y35121D01*
X25236Y36504D01*
X25079Y37898D01*
X25000Y39299D01*
X25000Y40701D01*
X25079Y42102D01*
X25236Y43496D01*
X25471Y44879D01*
X25783Y46247D01*
X26171Y47595D01*
X26635Y48919D01*
X27171Y50215D01*
X27780Y51479D01*
X28459Y52707D01*
X29205Y53895D01*
X30017Y55039D01*
X30892Y56136D01*
X31826Y57182D01*
X32818Y58174D01*
X33864Y59108D01*
X34961Y59983D01*
X36105Y60795D01*
X37293Y61541D01*
X38521Y62220D01*
X39785Y62829D01*
X41081Y63365D01*
X42405Y63829D01*
X43753Y64217D01*
X45121Y64529D01*
X46504Y64764D01*
X47898Y64921D01*
X49299Y65000D01*
X50701Y65000D01*
X52102Y64921D01*
X53496Y64764D01*
X54879Y64529D01*
X56247Y64217D01*
X57595Y63829D01*
X58919Y63365D01*
X60215Y62829D01*
X61479Y62220D01*
X62707Y61541D01*
X63895Y60795D01*
X65039Y59983D01*
X66136Y59108D01*
X67182Y58174D01*
X68174Y57182D01*
X69108Y56136D01*
X69983Y55039D01*
X70795Y53895D01*
X71541Y52707D01*
X72220Y51479D01*
X72829Y50215D01*
X73365Y48919D01*
X73829Y47595D01*
X74217Y46247D01*
X74529Y44879D01*
X74764Y43496D01*
X74921Y42102D01*
X75000Y40701D01*
X75000Y39299D01*
M02*
