M48
;GenerationSoftware,Autodesk,EAGLE,9.3.0*%
;CreationDate,2019-03-24T06:04:20Z*%
FMAT,2
ICI,OFF
METRIC,TZ,000.000
T7C0.813
T6C0.914
T5C1.016
T4C1.422
T3C2.286
T2C2.997
T1C5.000
%
G90
M71
T1
X80000Y4000
X80000Y58000
X5000Y49000
X5000Y4000
X78680Y23140
X78680Y16140
T2
X37890Y8700
X42590Y11700
X24890Y14700
X24890Y8700
X29590Y11700
X69190Y48000
X75190Y48000
X72190Y52700
X50890Y14700
X50890Y8700
X55590Y11700
X37890Y14700
T3
X16020Y58718
X3980Y58718
X32020Y58718
X19980Y58718
T4
X75010Y60000
X59770Y60000
X68730Y4000
X68730Y19240
T5
X16000Y18350
X59890Y23650
X59890Y36350
X59890Y20350
X59890Y7650
X65715Y23650
X24130Y34290
X26670Y34290
X29210Y34290
X31750Y34290
X24130Y49530
X26670Y49530
X29210Y49530
X31750Y49530
X49530Y25400
X46990Y25400
X44450Y25400
X41910Y25400
X49530Y58420
X46990Y58420
X44450Y58420
X41910Y58420
X65715Y36350
X9270Y29920
X6730Y29920
X9270Y32460
X6730Y32460
X9270Y35000
X6730Y35000
X9270Y37540
X6730Y37540
X9270Y40080
X6730Y40080
X9200Y8290
X6660Y8290
X9200Y10830
X6660Y10830
X9200Y13370
X6660Y13370
X9200Y15910
X6660Y15910
X9200Y18450
X6660Y18450
X79320Y29180
X79320Y41880
X16000Y27650
X16000Y40350
X16000Y5650
T6
X8750Y54019
X11250Y54019
X24750Y54019
X11250Y56000
X8750Y56000
X27250Y54019
X27250Y56000
X24750Y56000
T7
X59890Y38730
X59890Y41270
X16000Y20730
X16000Y23270
X16000Y42730
X16000Y45270
X74985Y41100
X60620Y49000
X63160Y49000
X59890Y4270
X59890Y1730
X65715Y41270
X65715Y38730
X74985Y38560
M30